<svg xmlns="http://www.w3.org/2000/svg" viewBox="0 0 716.31 138.18"><defs><style>.cls-1{fill:#851e66;stroke:#a37fb7;stroke-width:0.71px;}.cls-2,.cls-5{fill:#d26ea8;}.cls-2{stroke:#d26ea8;stroke-width:2.5px;}.cls-3{fill:#e8a1c5;stroke-width:0.99px;}.cls-3,.cls-5{stroke:#fff;}.cls-10,.cls-11,.cls-12,.cls-13,.cls-4,.cls-8,.cls-9{fill:#fff;}.cls-6{fill:none;}.cls-7{fill:#fcfcfb;}.cls-8{opacity:0.25;}.cls-9{opacity:0.6;}.cls-10{opacity:0.3;}.cls-11{opacity:0.4;}.cls-12{opacity:0.5;}.cls-13{opacity:0.8;}</style></defs><g id="ワイングラス"><path class="cls-1" d="M218.69,170c0-8.39,3.32-22.31,3.32-30.33,0-4.27-1.77-7.22-5.53-7.22-4.53,0-7.07,5.08-7.07,10.31,0,4.42,1.66,8.69,5.31,10-.67,3.1-4,5.45-8.73,5.45-7.07,0-10.05-4.05-10.05-9.2,0-9.13,9.39-21.8,24.85-21.8,13.25,0,16.35,7.88,16.35,17,0,6.19-.89,19-.89,23.05s.89,7.88,3.76,7.88c5.85,0,11.82-13.55,12.92-29.53v-11a32,32,0,0,1,8.06-.89,27.89,27.89,0,0,1,8.07,1c.66,13.7,2.21,41.9,10.05,41.9,4.53,0,6.51-9.06,6.51-19.15,0-14.65-4.19-25.47-7.73-27,.55-2.36,3.43-4.27,8-4.27,9.27,0,10.93,9.06,10.93,20.17,0,17.31-7.62,39.47-23.42,39.47-11,0-16.12-8.17-18.44-18.41-4.64,9.28-11.38,16.94-22.75,16.94C221.56,184.31,218.69,178.2,218.69,170Z" transform="translate(-39.97 -91.59)"/><path class="cls-1" d="M302.53,165.83c0-11.12,7.73-22.76,21.86-22.76,6,0,10.06,2.8,11.82,7.66h.56l.44-3.9c.88-.59,3.75-.88,6.51-.88s5.75.29,6.52.88c-.22,5.37-.44,11.12-.44,16,0,7.44.44,13,3.86,13,3.76,0,6.63-5.81,8.4-12.73a4.57,4.57,0,0,1,1.77-.3c2,0,4.08.89,4.19,2.28-4.53,10.61-11.48,19.15-21,19.15-7.62,0-11.38-4.42-10.94-11h-.66a16.79,16.79,0,0,1-15.9,11C307.83,184.31,302.53,175.47,302.53,165.83ZM334.34,160c0-5.45-2.76-9.79-7-9.79-6,0-8.62,7.14-8.62,14.36,0,4.78,2,11.33,6.52,11.33C330.36,175.91,334.34,168.48,334.34,160Z" transform="translate(-39.97 -91.59)"/><path class="cls-1" d="M389.23,173.63c0-4.71,1.44-11.85,1.44-16.34,0-3.39-.78-5.82-3.87-5.82-5.08,0-9.61,9.86-9.61,18.33,0,6.85.22,9.94.67,12.67-.78.81-4.42,1.25-8.18,1.25s-7.4-.44-8.39-1.25c.44-7.44.55-18,.55-26.95v-8.4c1.44-.73,4.86-1.17,8.06-1.17,2.43,0,4.75.29,5.75.88a63.55,63.55,0,0,0-1,9.57h.66c2.21-5.59,8.62-13.33,19.33-13.33,9.72,0,11.93,4.86,11.93,12.15,0,4-1,12-1,14.66,0,3.83.88,6,3.53,6,4.09,0,6.85-5.81,8.62-12.73a4.55,4.55,0,0,1,1.76-.3c2,0,4.09.89,4.2,2.28-4.53,10.61-11.71,19.15-22.42,19.15C391.55,184.31,389.23,180,389.23,173.63Z" transform="translate(-39.97 -91.59)"/><path class="cls-1" d="M455.39,170c0-8.39,3.32-22.31,3.32-30.33,0-4.27-1.77-7.22-5.53-7.22-4.53,0-7.06,5.08-7.06,10.31,0,4.42,1.65,8.69,5.3,10-.67,3.1-4,5.45-8.73,5.45-7.07,0-10.05-4.05-10.05-9.2,0-9.13,9.39-21.8,24.85-21.8,13.25,0,16.35,7.88,16.35,17,0,6.19-.89,19-.89,23.05s.89,7.88,3.76,7.88c5.85,0,11.82-13.55,12.92-29.53v-11a32.07,32.07,0,0,1,8.07-.89,27.86,27.86,0,0,1,8.06,1c.66,13.7,2.21,41.9,10,41.9,4.53,0,6.51-9.06,6.51-19.15,0-14.65-4.19-25.47-7.73-27,.56-2.36,3.43-4.27,8-4.27,9.27,0,10.93,9.06,10.93,20.17,0,17.31-7.62,39.47-23.42,39.47-11,0-16.12-8.17-18.44-18.41-4.64,9.28-11.38,16.94-22.75,16.94C458.26,184.31,455.39,178.2,455.39,170Z" transform="translate(-39.97 -91.59)"/><path class="cls-1" d="M541.88,167.82c0-6.12.55-12.45,1.21-19.37,1-.59,4.42-.88,7.73-.88s6.85.29,7.62.88c-.44,4.49-.88,9.87-.88,14.65,0,7,.88,12.81,3.87,12.81,3.64,0,6.4-5.81,8.17-12.73a4.57,4.57,0,0,1,1.77-.3c2,0,4.08.89,4.19,2.28-4.52,10.61-11.48,19.15-21.31,19.15S541.88,177.46,541.88,167.82Zm.44-30.19c0-3,4-5.53,8.84-5.53s8.83,2.51,8.83,5.53-4,5.44-8.83,5.44S542.32,140.57,542.32,137.63Z" transform="translate(-39.97 -91.59)"/><path class="cls-1" d="M596.77,173.63c0-4.71,1.44-11.85,1.44-16.34,0-3.39-.78-5.82-3.87-5.82-5.08,0-9.61,9.86-9.61,18.33a77.41,77.41,0,0,0,.66,12.67c-.77.81-4.41,1.25-8.17,1.25s-7.4-.44-8.39-1.25c.44-7.44.55-18,.55-26.95v-8.4c1.44-.73,4.86-1.17,8.06-1.17,2.43,0,4.75.29,5.75.88a63.55,63.55,0,0,0-1,9.57h.66c2.21-5.59,8.62-13.33,19.33-13.33,9.72,0,11.93,4.86,11.93,12.15,0,4-1,12-1,14.66,0,3.83.88,6,3.53,6,4.09,0,6.85-5.81,8.62-12.73a4.55,4.55,0,0,1,1.76-.3c2,0,4.09.89,4.2,2.28-4.53,10.61-11.71,19.15-22.42,19.15C599.09,184.31,596.77,180,596.77,173.63Z" transform="translate(-39.97 -91.59)"/><path class="cls-1" d="M622.84,165.83c0-11.05,8.39-22.76,23.3-22.76,9.72,0,14.36,5,14.36,10.46,0,6.77-7,14.36-19.88,14.36H640c1.43,5.23,5.19,9.5,12.26,9.5,9.72,0,14.58-7.29,16.35-14.21a4.55,4.55,0,0,1,1.76-.3c2,0,4.09.89,4.2,2.28C670,175.77,661.72,185,645.37,185,629.58,185,622.84,175.69,622.84,165.83Zm16.35-2.36a9.06,9.06,0,0,0,1.43.07c5.52,0,8.51-5.89,8.51-10.45,0-2.8-1.22-5.08-3.54-5.08-3.64,0-6.51,6.63-6.51,13.62A10.33,10.33,0,0,0,639.19,163.47Z" transform="translate(-39.97 -91.59)"/><path class="cls-1" d="M681.82,174.66c0-3.31,2.76-19.8,2.76-21.79,0-1.11-.33-1.4-1.21-1.4-1.11,0-3.54.44-5.19.44a61.69,61.69,0,0,1-3.65,13.25,4.57,4.57,0,0,1-1.77.3c-2,0-4.08-.88-4.19-2.28a65.86,65.86,0,0,0,2-12.67c-3.64-1.54-5.63-4.12-5.63-6.92,0-3.68,3.76-7.07,8.4-7.07,3.09,0,5,3.76,5.19,9.13H679c3.53,0,9.39-1.54,13.81-1.54,5.19,0,7.39,2,7.39,8.17,0,4.49-1.1,11.41-1.1,16.42,0,3.09,0,7.21,3.53,7.21,4.31,0,7.07-5.81,8.84-12.73a4.61,4.61,0,0,1,1.77-.3c2,0,4.08.89,4.19,2.28-4.52,10.61-11.59,19.15-22.64,19.15C685.24,184.31,681.82,180.11,681.82,174.66Z" transform="translate(-39.97 -91.59)"/><path class="cls-1" d="M711.09,192c0-3.1,3.42-5.82,8.83-5.82a19,19,0,0,1,7.07,1.4,6.94,6.94,0,0,0-.11,1.47c0,3.61,1.88,6.26,6,6.26,5.41,0,7-6,7.07-11.71a74.42,74.42,0,0,1,1-10.38h-.66c-1.77,5.74-7.62,11.12-16,11.12-10.93,0-13.14-6.19-13.14-16.27,0-5.9.66-13.11,1-21.21,1-.59,4.53-.88,8-.88s7,.29,7.73.88c-.33,5.45-.67,12.37-.67,17.38,0,6.92.78,11.7,3.87,11.7,5,0,8.39-8.39,8.62-17.52.11-4,.11-7.14.11-11.56,1.87-1.1,13.91-1.25,15.57,0-.22,4.64-.44,10.09-.44,14.28,0,10.17,1.1,17.31,1.1,23.2,0,10.75-8.28,16.57-23.63,16.57S711.09,196.09,711.09,192Z" transform="translate(-39.97 -91.59)"/><circle class="cls-2" cx="69.09" cy="69.09" r="67.84"/><circle class="cls-3" cx="69.09" cy="69.09" r="64.67"/><path class="cls-4" d="M60.69,149.66c-1.76-.87-4.32-3-6-3.86-.9-.44-1.71-.35-2.12.48-.49,1,.3,2.1,1.39,2.63a2.31,2.31,0,0,0,2.68-.14,2,2,0,0,1,.19,2.49c-.76,1.57-1.94,1.82-3,1.29-1.91-.94-3.55-4.33-1.87-7.76,1.45-2.94,3.43-2.82,5.35-1.88,1.29.64,3.89,2.15,4.74,2.57s1.74.61,2.06,0c.63-1.3-1.56-4-4.79-5.9l-.4-.2L57,138.41a9,9,0,0,1,.69-1.88,7.38,7.38,0,0,1,1.08-1.69c3,1.26,9,3.82,9.88,2.08.49-1-1.19-2.38-3.3-3.42-3.08-1.51-5.8-1.69-6.51-1.06-.44-.37-.53-1.2,0-2.21,1-2.06,3.09-1.49,5.42-.35,3.63,1.78,7.45,5.75,5.73,9.26-1.2,2.45-3.47,2.74-5.87,2.2,1.44,2,2.32,4.27,1.08,6.8C64,150.49,62.4,150.5,60.69,149.66Z" transform="translate(-39.97 -91.59)"/><path class="cls-4" d="M69,130.66a5.23,5.23,0,0,1,.26-7.56,2.85,2.85,0,0,1,3.34-.72l.1-.1-.55-.73a4.41,4.41,0,0,1,1-1.26,4,4,0,0,1,1.31-1c.82,1,1.71,2,2.5,2.79,1.19,1.25,2.17,2.12,2.79,1.54s.25-2.11-.55-3.58a1.1,1.1,0,0,1,.27-.35c.36-.34.87-.55,1.12-.33.89,2.56,1,5.19-.68,6.8-1.37,1.3-2.75,1.2-3.72,0l-.12.12A4.13,4.13,0,0,1,75,130.89,4,4,0,0,1,69,130.66Zm4.76-6.4c-.88-.92-2.07-1.18-2.82-.47-1.07,1-.4,2.68.76,3.9.77.8,2.18,1.57,3,.8S75.09,125.69,73.73,124.26Z" transform="translate(-39.97 -91.59)"/><path class="cls-4" d="M88.73,118c-.51-1-1-2.62-1.43-3.56-.36-.7-.79-1.12-1.47-.77-1.12.58-1.06,3.14-.16,4.89a17.15,17.15,0,0,0,1.5,2.56,4.42,4.42,0,0,1-1.66,1.18,5.16,5.16,0,0,1-2,.69c-.7-1.59-1.8-3.79-2.76-5.66l-.89-1.74a5.9,5.9,0,0,1,1.64-1.15,3.57,3.57,0,0,1,1.36-.47,15.2,15.2,0,0,0,.8,2.1l.15-.07a5.17,5.17,0,0,1,2.82-5c2.14-1.1,3.14-.34,3.92,1.17.43.83,1.07,2.6,1.35,3.15.41.8.84,1.16,1.42.86.9-.46.88-2,.53-3.62a1.23,1.23,0,0,1,.36-.26c.44-.22,1-.28,1.17,0,.13,2.71-.53,5.3-2.89,6.51C90.38,119.9,89.41,119.28,88.73,118Z" transform="translate(-39.97 -91.59)"/><path class="cls-4" d="M105.62,112.81c.22-1.94,1.41-5.07,1.62-6.93.11-1-.24-1.72-1.16-1.83-1.12-.13-1.87,1-2,2.19a2.3,2.3,0,0,0,1,2.47,2,2,0,0,1-2.29,1c-1.73-.2-2.36-1.23-2.22-2.42.24-2.12,2.89-4.78,6.68-4.35,3.25.38,3.81,2.29,3.56,4.41-.16,1.43-.72,4.37-.83,5.31s0,1.85.71,1.93c1.44.17,3.26-2.8,4-6.47,0-.16,0-.31,0-.45l.25-2.11a8.42,8.42,0,0,1,2,0,7.3,7.3,0,0,1,2,.45c-.2,3.19-.57,9.77,1.35,10,1.12.13,1.85-1.91,2.11-4.25.39-3.39-.35-6-1.18-6.48.2-.53,1-.89,2.07-.76,2.28.26,2.44,2.4,2.15,5-.46,4-2.92,8.93-6.8,8.48-2.71-.31-3.74-2.35-4-4.79-1.38,2-3.24,3.61-6,3.28C105.94,116.2,105.4,114.71,105.62,112.81Z" transform="translate(-39.97 -91.59)"/><path class="cls-4" d="M125.11,114.23c.54-1.32,1.21-2.64,2-4.08a6.09,6.09,0,0,1,1.85.53,5.33,5.33,0,0,1,1.67.9c-.49.93-1.06,2-1.48,3.08-.62,1.51-.92,2.85-.24,3.13.84.34,2-.67,3-2a1.12,1.12,0,0,1,.43.1c.46.19.86.57.76.88-2,1.88-4.3,3.08-6.56,2.17S124.27,116.31,125.11,114.23Zm2.74-6.49c.27-.65,1.4-.82,2.51-.37s1.81,1.36,1.54,2-1.39.81-2.5.36S127.6,108.38,127.85,107.74Z" transform="translate(-39.97 -91.59)"/><path class="cls-4" d="M136.73,121.41c.62-.9,1.86-2.07,2.46-2.93.45-.65.62-1.23,0-1.66-1-.72-3.26.54-4.39,2.16a18.46,18.46,0,0,0-1.55,2.52,4.42,4.42,0,0,1-1.82-.91,4.92,4.92,0,0,1-1.54-1.42c1.08-1.36,2.5-3.36,3.69-5.09l1.11-1.61a5.79,5.79,0,0,1,1.8.91,3.75,3.75,0,0,1,1.05,1,13,13,0,0,0-1.47,1.7l.13.09a5.18,5.18,0,0,1,5.69.16c2,1.37,1.78,2.61.81,4-.52.76-1.79,2.16-2.14,2.67-.51.74-.62,1.28-.09,1.66.83.57,2.17-.16,3.45-1.23a1.09,1.09,0,0,1,.39.19c.41.28.72.74.55,1-2.33,1.39-4.92,2-7.09.51C135.78,123.78,135.88,122.64,136.73,121.41Z" transform="translate(-39.97 -91.59)"/><path class="cls-4" d="M144.19,123.2a5.44,5.44,0,0,1,7.76,1c1.53,1.85,1.36,3.48.38,4.29-1.21,1-3.67.82-5.71-1.64l-.1-.13a2.93,2.93,0,0,0,.22,3.75,4.09,4.09,0,0,0,5.13,1,1.13,1.13,0,0,1,.33.29c.32.38.49.91.25,1.14a7.3,7.3,0,0,1-8.16-2.58C141.8,127.34,142.41,124.67,144.19,123.2Zm3,2.76a1.57,1.57,0,0,0,.21.28,2.32,2.32,0,0,0,3.22.06c.5-.42.72-1,.35-1.43-.57-.69-2.21-.25-3.47.79A1.77,1.77,0,0,0,147.19,126Z" transform="translate(-39.97 -91.59)"/><path class="cls-4" d="M150.77,135.69c.7-.33,4.46-1.37,4.88-1.57.24-.11.26-.21.17-.41s-.47-.74-.64-1.11a13.82,13.82,0,0,1-3.18.51,1.1,1.1,0,0,1-.25-.37c-.21-.44-.25-1,0-1.16a14,14,0,0,0,2.88-.83,1.88,1.88,0,0,1,.86-1.95A1.94,1.94,0,0,1,157.9,130c.33.69-.26,1.48-1.37,2.07l.05.1c.37.79,1.32,1.94,1.79,2.93.55,1.15.36,1.85-.94,2.47-1,.45-2.52.89-3.57,1.4-.66.31-1.52.72-1.15,1.51.46,1,2,1,3.62.69a1.1,1.1,0,0,1,.25.37c.21.44.25,1,0,1.16-2.72.05-5.27-.67-6.44-3.13C149.1,137.42,149.62,136.23,150.77,135.69Z" transform="translate(-39.97 -91.59)"/><path class="cls-4" d="M151.63,143.24c.68-.24,1.56.34,2,1.61a4.73,4.73,0,0,1,.28,1.75,2.37,2.37,0,0,0-.34.09,1.34,1.34,0,0,0-.88,1.88c.44,1.26,1.9,1.15,3.15.74a15.92,15.92,0,0,1,2.37-.58l-.05-.15a4.07,4.07,0,0,1-3.77-2.87c-.9-2.55.28-3.55,2.5-4.33,1.3-.46,2.94-.87,4.75-1.42a6.32,6.32,0,0,1,.85,1.79,5.64,5.64,0,0,1,.44,1.87c-1.23.34-2.78.8-3.88,1.19-1.52.54-2.51,1.09-2.26,1.81.41,1.16,2.54,1.31,4.57.65.9-.29,1.58-.53,2.55-.87a9,9,0,0,1,1.28,3.63c-1,.31-2.26.68-3.18,1-2.23.78-3.72,1.6-5,2.06-2.37.83-4.33-.65-5.59-4.23S150.72,143.56,151.63,143.24Z" transform="translate(-39.97 -91.59)"/><path class="cls-4" d="M60,187.72a1.93,1.93,0,0,1,2.09.09s.05-.05.09-.08a36.25,36.25,0,0,0,4.48-1.4A8.17,8.17,0,0,1,68.82,189a4.39,4.39,0,0,1,.43,1A.64.64,0,0,0,69,190c-1.06.58-2.35,4.61-4.38,5.73-1.61.88-3.68.08-5.26-2.82C58,190.31,58.76,188.4,60,187.72Zm.35,4.61a1.37,1.37,0,0,0,2,.58c1.1-.6,2.45-2.69,3.49-4.62a18.47,18.47,0,0,1-2.93.78,1.32,1.32,0,0,1-.39,1.57,2.68,2.68,0,0,0-1.85.17A1,1,0,0,0,60.34,192.33Z" transform="translate(-39.97 -91.59)"/><path class="cls-4" d="M66.74,196.34c1.09-.91,2.31-1.76,3.65-2.68a5.53,5.53,0,0,1,1.32,1.25,4.81,4.81,0,0,1,1,1.5c-.87.59-1.9,1.32-2.76,2-1.25,1.05-2.16,2.08-1.71,2.61s2,.28,3.5-.44a1,1,0,0,1,.32.27c.3.35.45.86.22,1.09-2.58.78-5.15.81-6.62-.94S65,197.79,66.74,196.34Zm5.47-4.44c.54-.45,1.59-.12,2.31.75s.88,2,.34,2.41-1.57.1-2.3-.76S71.68,192.34,72.21,191.9Z" transform="translate(-39.97 -91.59)"/><path class="cls-4" d="M76.35,207c.71-.84,2.05-1.89,2.74-2.68.51-.6.74-1.15.19-1.62-.9-.77-3.2.29-4.49,1.79a17,17,0,0,0-1.8,2.35,4.14,4.14,0,0,1-1.64-1,4.37,4.37,0,0,1-1.3-1.5c1.21-1.25,2.82-3.1,4.19-4.69l1.27-1.49a5.3,5.3,0,0,1,1.61,1,3.39,3.39,0,0,1,.89,1,14.69,14.69,0,0,0-1.63,1.55l.11.1a4.92,4.92,0,0,1,5.46.57c1.72,1.48,1.38,2.67.27,4-.6.7-2,2-2.4,2.44-.58.68-.76,1.21-.29,1.61.73.62,2.1,0,3.46-1a.86.86,0,0,1,.36.22c.36.3.59.77.4,1-2.41,1.19-5,1.61-6.88,0C75.14,209.19,75.38,208.08,76.35,207Z" transform="translate(-39.97 -91.59)"/><path class="cls-4" d="M83.47,209.5a5.27,5.27,0,0,1,7.17-2.2c2.12,1.12,2.39,2.82,1.81,3.93a1.88,1.88,0,0,1-2.61.85c-.85-.45-1.1-1.13-.79-1.7a2,2,0,0,0,1.23-1c.22-.41.24-.83-.17-1-.76-.4-2.07.65-2.83,2.09s-1,3.62,1,4.66,3.71,0,4.83-1.19a1.2,1.2,0,0,1,.39.13c.41.22.75.63.62.93-2.09,1.69-4.79,2.71-8.09,1S82.4,211.54,83.47,209.5Z" transform="translate(-39.97 -91.59)"/><path class="cls-4" d="M94.32,212.56a5.29,5.29,0,0,1,7.39-1.79c2,1.15,2.29,2.71,1.64,3.8-.8,1.36-3.1,2.05-5.7.52l-.13-.08a2.78,2.78,0,0,0,1.33,3.36,4,4,0,0,0,5-.9,1,1,0,0,1,.39.15c.4.23.72.66.57.95a6.92,6.92,0,0,1-8.22.52C93.39,217.21,93.15,214.53,94.32,212.56ZM97.89,214a1.5,1.5,0,0,0,.28.18c1.11.66,2.41-.17,3-1.08.33-.56.36-1.16-.11-1.44-.73-.43-2.1.55-2.93,2A1.69,1.69,0,0,0,97.89,214Z" transform="translate(-39.97 -91.59)"/><path class="cls-4" d="M112,220.26a4.32,4.32,0,0,0-1.7.61.34.34,0,0,1-.41-.26c-.15-.81,1.84-2.57,3.69-5,1.54-2.05,2.45-4.68,2.16-6.23a1.53,1.53,0,0,0-2-1.37,2.1,2.1,0,0,0-1.59,2.63,2.56,2.56,0,0,0,1.4,1.93c0,.74-.77,1.34-1.81,1.53-1.8.33-2.67-.56-2.9-1.79-.36-2,1.2-4.78,5.36-5.54,3.29-.6,5.19.31,5.49,2,.43,2.35-2.29,6.23-5.9,9.38.91-.14,2-.26,2.95-.44,1.55-.28,3-.7,3.58-1.49a1.19,1.19,0,0,1,1,1c.17.93-.5,2.24-2.35,2.58C116.32,220.25,113.5,220,112,220.26Z" transform="translate(-39.97 -91.59)"/><path class="cls-4" d="M123.51,213.74a6.37,6.37,0,0,1-.24-4.87,5,5,0,0,1,3.36-4.54c3.89-1.58,6.7.46,8,3.53,1.36,3.32.69,7.69-3.25,9.29S124.66,216.55,123.51,213.74Zm7.61,2.2c1.48-.6,1-3.61-.06-6.28-.89-2.17-2.55-4.8-4.19-4.13-1.08.44-1,1.91-.55,3.1a2.78,2.78,0,0,0,1.36,1.61,2,2,0,0,1-1,1c.07.19.16.4.24.6C127.93,214.33,129.49,216.6,131.12,215.94Z" transform="translate(-39.97 -91.59)"/><path class="cls-4" d="M137.13,207.56a6.42,6.42,0,0,1-1.78-4.55,5,5,0,0,1,1.73-5.37c3.18-2.74,6.5-1.7,8.66.81,2.35,2.72,3.11,7.08-.11,9.85S139.12,209.86,137.13,207.56Zm7.91-.33c1.21-1-.17-3.76-2.06-5.94-1.53-1.79-3.94-3.75-5.29-2.59-.87.76-.37,2.13.47,3.11a2.8,2.8,0,0,0,1.81,1.1,2.05,2.05,0,0,1-.64,1.28l.43.49C141.51,206.71,143.71,208.37,145,207.23Z" transform="translate(-39.97 -91.59)"/><path class="cls-4" d="M154.61,198.25a28.93,28.93,0,0,1-2.52-2,42.71,42.71,0,0,1-4.31-4.39,4.62,4.62,0,0,1-.67,3.25c-.39.44-.93.62-1.17.42a13.11,13.11,0,0,0-.44-6.47,4.07,4.07,0,0,1,.58-.82,5.14,5.14,0,0,1,1.54-1.29,60.17,60.17,0,0,0,4.82,4.67,44.15,44.15,0,0,0,4.72,3.7,4.09,4.09,0,0,1-1,1.61A4.61,4.61,0,0,1,154.61,198.25Z" transform="translate(-39.97 -91.59)"/><circle class="cls-5" cx="68.31" cy="70.38" r="40.31"/><path class="cls-6" d="M105,134l-.27-.89.57-.11c-.68-1-4.85-1.33-10.4-.31s-9.31,2.85-9.6,4l.57-.1c0,.31,0,.62.07.93,1.44.65,5.14.78,9.83-.08S103.9,135.08,105,134Z" transform="translate(-39.97 -91.59)"/><path class="cls-6" d="M86,138a60.62,60.62,0,0,0,.8,6c2.78,15.14,9.93,24.73,14.61,23.87s7.94-12.37,5.15-27.51c-.37-2-.85-4-1.4-5.91-1.59,1.34-5.43,2.65-9.29,3.36S88,138.68,86,138Z" transform="translate(-39.97 -91.59)"/><path class="cls-4" d="M94.92,132.65c5.55-1,9.72-.66,10.4.31l.52-.09c-.72-1.55-6-1.56-11-.65s-9.92,2.82-10,4.52l.52-.1C85.61,135.5,89.38,133.67,94.92,132.65Z" transform="translate(-39.97 -91.59)"/><path class="cls-4" d="M95.79,137.39c-4.69.86-8.39.73-9.83.08,0,.17,0,.34,0,.52,2,.69,6,.54,9.87-.17s7.7-2,9.29-3.36c0-.17-.09-.33-.14-.5C103.9,135.08,100.49,136.52,95.79,137.39Z" transform="translate(-39.97 -91.59)"/><path class="cls-4" d="M86,138c0-.18,0-.35,0-.52-.38-.17-.61-.37-.65-.6a.6.6,0,0,1,0-.23l-.52.1a.55.55,0,0,0,0,.22C84.89,137.41,85.32,137.75,86,138Z" transform="translate(-39.97 -91.59)"/><path class="cls-4" d="M105.41,133.17a1,1,0,0,1-.39.79c0,.17.1.33.14.5.55-.47.83-.93.75-1.38a.65.65,0,0,0-.07-.21l-.52.09A1,1,0,0,1,105.41,133.17Z" transform="translate(-39.97 -91.59)"/><path class="cls-7" d="M88.61,138.26c-.1,4.47,2.89,23.84,7.85,27.93,0,0-6.71-17.21-5.73-27.86Z" transform="translate(-39.97 -91.59)"/><path class="cls-7" d="M102.65,135.68c1.69,4.14,5.79,23.3,2.61,28.89,0,0,.14-18.47-4.56-28.07Z" transform="translate(-39.97 -91.59)"/><path class="cls-8" d="M89.22,153.6l3.2,7.55,6,7.35,2.72-.5-2.7-14.64C94.94,154,91.25,154.15,89.22,153.6Z" transform="translate(-39.97 -91.59)"/><path class="cls-9" d="M98.69,153.32l-.11,0-.11,0,2.7,14.64,4.31-.8,1.93-9.25.88-8.54C107.31,150.93,103,152.51,98.69,153.32Z" transform="translate(-39.97 -91.59)"/><path class="cls-10" d="M87.66,152.46c.1.53.67.9,1.56,1.14,2,.55,5.72.4,9.25-.24l-1-5.59C92.36,148.72,87.34,150.72,87.66,152.46Z" transform="translate(-39.97 -91.59)"/><path class="cls-4" d="M84.81,137a0,0,0,0,0,0,0,2.09,2.09,0,0,1,0-.25A.76.76,0,0,0,84.81,137Z" transform="translate(-39.97 -91.59)"/><path class="cls-4" d="M105.91,133.1c.07.44-.21.9-.75,1.36.55,1.91,1,3.89,1.4,5.91,2.79,15.14-.48,26.65-5.15,27.51S89.58,159.15,86.8,144a60.62,60.62,0,0,1-.8-6c-.66-.24-1.09-.57-1.18-1a60.32,60.32,0,0,0,.94,9.36c2.7,14.66,9.81,25.67,16,24.86l.22,0h0c6.25-1.15,9.09-14.13,6.36-29C107.82,139.24,106.26,134.21,105.91,133.1Z" transform="translate(-39.97 -91.59)"/><path class="cls-4" d="M105.84,132.87s0,.08.07.23v0A.65.65,0,0,0,105.84,132.87Z" transform="translate(-39.97 -91.59)"/><path class="cls-11" d="M105,184.34l-2.58-14-.56.11,4.7,25.55.11,0c6-1.1,9.63-3.2,10-4-.48-.17-2-.68-6.53-2.16A7.23,7.23,0,0,1,105,184.34Z" transform="translate(-39.97 -91.59)"/><path class="cls-4" d="M110.28,189.49a7,7,0,0,1-4.9-5.22l-2.64-14.34-1.85.34,2.64,14.34a6.94,6.94,0,0,1-2.72,6.62c-2.53,2.05-5.55,4.48-5.54,4.52.2,1.1,5.43,1.67,11.45.57s10.55-3.48,10.35-4.58C117.06,191.7,113.38,190.5,110.28,189.49ZM106.66,196l-.11,0-.2,0c-5.78,1-10,.39-10.61-.22.39-.33,1.62-1.33,5.34-4.33a7.25,7.25,0,0,0,2.84-6.94l-2.57-14,1.06-.2,2.58,14a7.23,7.23,0,0,0,5.13,5.47c4.55,1.48,6,2,6.53,2.16C116.29,192.78,112.62,194.88,106.66,196Z" transform="translate(-39.97 -91.59)"/><path class="cls-8" d="M101.35,170.54l2.57,14a7.25,7.25,0,0,1-2.84,6.94c-3.72,3-5,4-5.34,4.33.64.61,4.83,1.24,10.61.22l.2,0-4.7-25.55Z" transform="translate(-39.97 -91.59)"/><path class="cls-12" d="M97.66,147.72l-.11,0-.11,0,1,5.59.11,0,.11,0c4.34-.81,8.62-2.39,9.6-3.91a1.16,1.16,0,0,0,.19-.78C108.16,146.89,102.75,146.8,97.66,147.72Z" transform="translate(-39.97 -91.59)"/><ellipse class="cls-13" cx="96.36" cy="155.75" rx="1.28" ry="1.09" transform="translate(-66.58 -71.57) rotate(-10.43)"/><ellipse class="cls-13" cx="100.78" cy="157.16" rx="0.77" ry="0.66" transform="translate(-66.76 -70.75) rotate(-10.43)"/><ellipse class="cls-13" cx="98.87" cy="159.52" rx="0.51" ry="0.44" transform="translate(-67.22 -71.05) rotate(-10.43)"/><ellipse class="cls-13" cx="102.12" cy="160.25" rx="1.02" ry="0.88" transform="translate(-67.3 -70.45) rotate(-10.43)"/><ellipse class="cls-13" cx="98.87" cy="163.75" rx="0.77" ry="0.66" transform="matrix(0.98, -0.18, 0.18, 0.98, -67.98, -70.98)"/><path class="cls-6" d="M130.71,141.81c0-.28,0-.56.07-.84l.51.1c-.25-1-3.61-2.7-8.57-3.65s-8.69-.67-9.31.19l.51.1c-.08.26-.16.53-.25.8,1,1,4,2.33,8.24,3.14S129.42,142.37,130.71,141.81Z" transform="translate(-39.97 -91.59)"/><path class="cls-6" d="M113.54,139c-.51,1.71-1,3.48-1.3,5.29-2.62,13.53.22,23.86,4.39,24.67s10.66-7.72,13.28-21.26a53.72,53.72,0,0,0,.76-5.39c-1.76.61-5.39.44-8.84-.23S115,140.17,113.54,139Z" transform="translate(-39.97 -91.59)"/><path class="cls-4" d="M122.72,137.42c5,1,8.32,2.62,8.57,3.65l.47.09c-.1-1.52-4.52-3.27-9-4.13s-9.2-.89-9.85.49l.46.09C114,136.75,117.77,136.46,122.72,137.42Z" transform="translate(-39.97 -91.59)"/><path class="cls-4" d="M121.91,141.65c-4.2-.81-7.25-2.13-8.24-3.14,0,.15-.09.29-.13.44,1.41,1.22,4.84,2.42,8.29,3.08s7.08.84,8.84.23c0-.15,0-.3,0-.45C129.42,142.37,126.1,142.46,121.91,141.65Z" transform="translate(-39.97 -91.59)"/><path class="cls-4" d="M113.54,139c0-.15.09-.29.13-.44a.9.9,0,0,1-.34-.72.48.48,0,0,1,.08-.18l-.46-.09a.62.62,0,0,0-.07.19C112.8,138.11,113.05,138.53,113.54,139Z" transform="translate(-39.97 -91.59)"/><path class="cls-4" d="M131.3,141.27c0,.21-.25.39-.59.54,0,.15,0,.3,0,.45.61-.2,1-.5,1.08-.9a1.41,1.41,0,0,0,0-.2l-.47-.09A.46.46,0,0,1,131.3,141.27Z" transform="translate(-39.97 -91.59)"/><path class="cls-7" d="M115.63,140c-1.55,3.69-5.37,20.82-2.57,25.85,0,0,0-16.54,4.32-25.11Z" transform="translate(-39.97 -91.59)"/><path class="cls-7" d="M128.18,142.46c.06,4-2.78,21.33-7.25,24.95,0,0,6.15-15.36,5.35-24.9Z" transform="translate(-39.97 -91.59)"/><path class="cls-8" d="M111.13,153l.2,7.34,2.63,8.09,2.43.47,2.54-13.09C115.77,155.22,112.64,154.15,111.13,153Z" transform="translate(-39.97 -91.59)"/><path class="cls-9" d="M119.12,155.88l-.1,0-.09,0-2.54,13.09,3.86.75,4.63-7.09,3.52-6.84C127.09,156.71,123,156.62,119.12,155.88Z" transform="translate(-39.97 -91.59)"/><path class="cls-10" d="M110.2,151.56c-.09.48.27,1,.93,1.47,1.51,1.12,4.64,2.19,7.8,2.81l1-5C115.35,150,110.5,150,110.2,151.56Z" transform="translate(-39.97 -91.59)"/><path class="cls-4" d="M112.88,137.71v0c0-.08.05-.15.07-.22A.87.87,0,0,0,112.88,137.71Z" transform="translate(-39.97 -91.59)"/><path class="cls-4" d="M131.74,141.37c-.08.4-.46.69-1.07.89a53.72,53.72,0,0,1-.76,5.39c-2.62,13.54-9.1,22.07-13.28,21.26s-7-11.14-4.39-24.67c.35-1.81.79-3.58,1.3-5.29-.48-.41-.72-.82-.66-1.21a54,54,0,0,0-2.27,8.11c-2.54,13.11-.19,24.61,5.23,26l.19,0h0c5.58,1.08,12.19-8.81,14.76-22.1C131.33,147.12,131.67,142.42,131.74,141.37Z" transform="translate(-39.97 -91.59)"/><path class="cls-4" d="M131.76,141.16s0,.08,0,.21h0A1.41,1.41,0,0,0,131.76,141.16Z" transform="translate(-39.97 -91.59)"/><path class="cls-11" d="M114.25,183.81l2.42-12.52-.51-.09L111.75,194l.09,0c5.33,1,9.08.48,9.64-.09-.34-.29-1.43-1.2-4.74-3.92A6.49,6.49,0,0,1,114.25,183.81Z" transform="translate(-39.97 -91.59)"/><path class="cls-4" d="M117,189.83a6.21,6.21,0,0,1-2.38-6l2.48-12.82-1.66-.32-2.48,12.82a6.23,6.23,0,0,1-4.43,4.63c-2.78.88-6.09,1.93-6.1,2-.18,1,4,3.17,9.37,4.21s9.94.54,10.13-.44C121.91,193.89,119.23,191.68,117,189.83Zm-5.14,4.23-.09,0-.19,0c-5.15-1-8.44-2.93-8.77-3.64.44-.15,1.78-.59,5.86-1.88a6.48,6.48,0,0,0,4.64-4.85l2.42-12.52,1,.18-2.42,12.52a6.49,6.49,0,0,0,2.49,6.24c3.31,2.72,4.4,3.63,4.74,3.92C120.92,194.54,117.17,195.09,111.84,194.06Z" transform="translate(-39.97 -91.59)"/><path class="cls-8" d="M115.71,171.11l-2.42,12.52a6.48,6.48,0,0,1-4.64,4.85c-4.08,1.29-5.42,1.73-5.86,1.88.33.71,3.62,2.6,8.77,3.64l.19,0,4.41-22.84Z" transform="translate(-39.97 -91.59)"/><path class="cls-12" d="M120.09,150.88l-.1,0-.1,0-1,5,.09,0,.1,0c3.88.74,8,.83,9.28-.13a1,1,0,0,0,.41-.59C129.11,153.61,124.63,151.77,120.09,150.88Z" transform="translate(-39.97 -91.59)"/><ellipse class="cls-13" cx="116.38" cy="157.15" rx="0.98" ry="1.14" transform="translate(-99.98 149.99) rotate(-79.05)"/><ellipse class="cls-13" cx="119.6" cy="159.77" rx="0.59" ry="0.69" transform="translate(-99.94 155.27) rotate(-79.05)"/><ellipse class="cls-13" cx="117.25" cy="161.11" rx="0.39" ry="0.46" transform="translate(-103.17 154.04) rotate(-79.05)"/><ellipse class="cls-13" cx="119.72" cy="162.79" rx="0.78" ry="0.92" transform="translate(-102.81 157.83) rotate(-79.05)"/><ellipse class="cls-13" cx="115.87" cy="164.64" rx="0.59" ry="0.69" transform="translate(-107.75 155.55) rotate(-79.05)"/><polygon class="cls-4" points="73.3 35.43 72.18 39.41 74.27 40.35 72.02 39.92 70.63 43.81 71.75 39.83 69.66 38.89 71.91 39.33 73.3 35.43"/></g></svg>