<?xml version="1.0" encoding="utf-8"?>
<!-- Generator: Adobe Illustrator 26.0.0, SVG Export Plug-In . SVG Version: 6.00 Build 0)  -->
<svg version="1.1" id="レイヤー_1" xmlns="http://www.w3.org/2000/svg" xmlns:xlink="http://www.w3.org/1999/xlink" x="0px"
	 y="0px" viewBox="0 0 716.3 138.2" style="enable-background:new 0 0 716.3 138.2;" xml:space="preserve">
<style type="text/css">
	.st0{fill:#D26EA8;stroke:#D26EA8;stroke-width:2.5;}
	.st1{fill:#E8A1C5;stroke:#FFFFFF;stroke-width:0.99;}
	.st2{fill:#FFFFFF;}
	.st3{fill:#D26EA8;stroke:#FFFFFF;}
	.st4{fill:none;}
	.st5{fill:#FCFCFB;}
	.st6{opacity:0.25;fill:#FFFFFF;enable-background:new    ;}
	.st7{opacity:0.6;fill:#FFFFFF;enable-background:new    ;}
	.st8{opacity:0.3;fill:#FFFFFF;enable-background:new    ;}
	.st9{opacity:0.4;fill:#FFFFFF;enable-background:new    ;}
	.st10{opacity:0.5;fill:#FFFFFF;enable-background:new    ;}
	.st11{opacity:0.8;fill:#FFFFFF;enable-background:new    ;}
</style>
<circle class="st0" cx="69.1" cy="69.1" r="67.8"/>
<circle class="st1" cx="69.1" cy="69.1" r="64.7"/>
<path class="st2" d="M20.7,58.1c-1.8-0.9-4.3-3-6-3.9c-0.9-0.4-1.7-0.4-2.1,0.5c-0.5,1,0.3,2.1,1.4,2.6c0.8,0.5,1.9,0.5,2.7-0.1
	c0.6,0.7,0.7,1.7,0.2,2.5c-0.8,1.6-1.9,1.8-3,1.3c-1.9-0.9-3.5-4.3-1.9-7.8c1.5-2.9,3.4-2.8,5.3-1.9c1.3,0.6,3.9,2.1,4.7,2.6
	s1.7,0.6,2.1,0c0.6-1.3-1.6-4-4.8-5.9l-0.4-0.2l-1.9-1c0.2-0.7,0.4-1.3,0.7-1.9c0.3-0.6,0.6-1.2,1.1-1.7c3,1.3,9,3.8,9.9,2.1
	c0.5-1-1.2-2.4-3.3-3.4c-3.1-1.5-5.8-1.7-6.5-1.1c-0.4-0.4-0.5-1.2,0-2.2c1-2.1,3.1-1.5,5.4-0.4c3.6,1.8,7.4,5.8,5.7,9.3
	c-1.2,2.4-3.5,2.7-5.9,2.2c1.4,2,2.3,4.3,1.1,6.8C24,58.9,22.4,58.9,20.7,58.1z"/>
<path class="st2" d="M29,39.1c-2-2.1-2-5.4,0.1-7.4c0.1-0.1,0.1-0.1,0.2-0.2c0.8-1,2.2-1.2,3.3-0.7l0.1-0.1L32.2,30
	c0.3-0.5,0.6-0.9,1-1.3c0.4-0.4,0.8-0.8,1.3-1c0.8,1,1.7,2,2.5,2.8c1.2,1.2,2.2,2.1,2.8,1.5s0.2-2.1-0.6-3.6
	c0.1-0.1,0.2-0.3,0.3-0.3c0.4-0.3,0.9-0.6,1.1-0.3c0.9,2.6,1,5.2-0.7,6.8c-1.4,1.3-2.8,1.2-3.7,0l-0.1,0.1c0.6,1.6,0.2,3.5-1.1,4.6
	c-1.5,1.6-4.1,1.7-5.7,0.1C29.3,39.3,29.1,39.2,29,39.1z M33.8,32.7c-0.9-0.9-2.1-1.2-2.8-0.5c-1.1,1-0.4,2.7,0.8,3.9
	c0.8,0.8,2.2,1.6,3,0.8S35.1,34.1,33.8,32.7L33.8,32.7z"/>
<path class="st2" d="M48.8,26.4c-0.5-1-1-2.6-1.4-3.6c-0.4-0.7-0.8-1.1-1.5-0.8c-1.1,0.6-1.1,3.1-0.2,4.9c0.4,0.9,0.9,1.8,1.5,2.6
	c-0.5,0.5-1,0.9-1.7,1.2c-0.6,0.4-1.3,0.6-2,0.7c-0.7-1.6-1.8-3.8-2.8-5.7L39.9,24c0.5-0.5,1-0.9,1.6-1.2c0.4-0.2,0.9-0.4,1.4-0.5
	c0.2,0.7,0.5,1.4,0.8,2.1l0.2-0.1c-0.2-2.1,1-4.1,2.8-5c2.1-1.1,3.1-0.3,3.9,1.2c0.4,0.8,1.1,2.6,1.3,3.2c0.4,0.8,0.8,1.2,1.4,0.9
	c0.9-0.5,0.9-2,0.5-3.6c0.1-0.1,0.2-0.2,0.4-0.3c0.4-0.2,1-0.3,1.2,0c0.1,2.7-0.5,5.3-2.9,6.5C50.4,28.3,49.4,27.7,48.8,26.4z"/>
<path class="st2" d="M65.7,21.2c0.2-1.9,1.4-5.1,1.6-6.9c0.1-1-0.2-1.7-1.2-1.8c-1.1-0.1-1.9,1-2,2.2c-0.2,1,0.2,1.9,1,2.5
	c-0.4,0.8-1.4,1.2-2.3,1c-1.7-0.2-2.4-1.2-2.2-2.4c0.2-2.1,2.9-4.8,6.7-4.3c3.2,0.4,3.8,2.3,3.6,4.4c-0.2,1.4-0.7,4.4-0.8,5.3
	s0,1.8,0.7,1.9c1.4,0.2,3.3-2.8,4-6.5c0-0.2,0-0.3,0-0.4L75,14c0.7-0.1,1.3-0.1,2,0c0.7,0.1,1.4,0.2,2,0.4c-0.2,3.2-0.6,9.8,1.3,10
	c1.1,0.1,1.8-1.9,2.1-4.2c0.4-3.4-0.3-6-1.2-6.5c0.2-0.5,1-0.9,2.1-0.8c2.3,0.3,2.4,2.4,2.2,5c-0.5,4-2.9,8.9-6.8,8.5
	c-2.7-0.3-3.7-2.3-4-4.8c-1.4,2-3.2,3.6-6,3.3C66,24.6,65.4,23.1,65.7,21.2z"/>
<path class="st2" d="M85.1,22.6c0.5-1.3,1.2-2.6,2-4.1c0.6,0.1,1.3,0.3,1.9,0.5c0.6,0.2,1.2,0.5,1.7,0.9c-0.5,0.9-1.1,2-1.5,3.1
	c-0.6,1.5-0.9,2.8-0.2,3.1c0.8,0.3,2-0.7,3-2c0.1,0,0.3,0,0.4,0.1c0.5,0.2,0.9,0.6,0.8,0.9c-2,1.9-4.3,3.1-6.6,2.2
	S84.3,24.7,85.1,22.6z M87.9,16.1c0.3-0.7,1.4-0.8,2.5-0.4c1.1,0.4,1.8,1.4,1.5,2s-1.4,0.8-2.5,0.4S87.6,16.8,87.9,16.1z"/>
<path class="st2" d="M96.8,29.8c0.6-0.9,1.9-2.1,2.5-2.9c0.4-0.7,0.6-1.2,0-1.7c-1-0.7-3.3,0.5-4.4,2.2c-0.6,0.8-1.1,1.6-1.6,2.5
	c-0.7-0.2-1.3-0.5-1.8-0.9c-0.6-0.4-1.1-0.8-1.5-1.4c1.1-1.4,2.5-3.4,3.7-5.1l1.1-1.6c0.6,0.2,1.3,0.5,1.8,0.9
	c0.4,0.3,0.8,0.6,1.1,1c-0.5,0.5-1,1.1-1.5,1.7l0.1,0.1c1.8-1.1,4-1,5.7,0.2c2,1.4,1.8,2.6,0.8,4c-0.5,0.8-1.8,2.2-2.1,2.7
	c-0.5,0.7-0.6,1.3-0.1,1.7c0.8,0.6,2.2-0.2,3.4-1.2c0.1,0,0.3,0.1,0.4,0.2c0.4,0.3,0.7,0.7,0.6,1c-2.3,1.4-4.9,2-7.1,0.5
	C95.8,32.2,95.9,31,96.8,29.8z"/>
<path class="st2" d="M104.2,31.6c2.3-1.9,5.8-1.5,7.6,0.9c0,0,0.1,0.1,0.1,0.1c1.5,1.8,1.4,3.5,0.4,4.3c-1.2,1-3.7,0.8-5.7-1.6
	l-0.1-0.1c-0.8,1.1-0.8,2.7,0.2,3.8c1.2,1.5,3.4,1.9,5.1,1c0.1,0.1,0.2,0.2,0.3,0.3c0.3,0.4,0.5,0.9,0.2,1.1c-3,1-6.3,0-8.2-2.6
	C101.8,35.7,102.4,33.1,104.2,31.6z M107.2,34.4c0.1,0.1,0.1,0.2,0.2,0.3c0.9,0.9,2.3,0.9,3.2,0.1c0.5-0.4,0.7-1,0.4-1.4
	c-0.6-0.7-2.2-0.2-3.5,0.8C107.4,34.2,107.3,34.3,107.2,34.4L107.2,34.4z"/>
<path class="st2" d="M110.8,44.1c0.7-0.3,4.5-1.4,4.9-1.6c0.2-0.1,0.3-0.2,0.2-0.4s-0.5-0.7-0.6-1.1c-1,0.3-2.1,0.5-3.2,0.5
	c-0.1-0.1-0.2-0.2-0.2-0.4c-0.2-0.4-0.2-1,0-1.2c1-0.2,2-0.5,2.9-0.8c-0.1-0.8,0.2-1.5,0.9-1.9c1-0.3,2.1,0.2,2.4,1.2
	c0.3,0.7-0.3,1.5-1.4,2.1l0.1,0.1c0.4,0.8,1.3,1.9,1.8,2.9c0.6,1.1,0.4,1.9-0.9,2.5c-1,0.4-2.5,0.9-3.6,1.4
	c-0.7,0.3-1.5,0.7-1.1,1.5c0.5,1,2,1,3.6,0.7c0.1,0.1,0.2,0.2,0.2,0.4c0.2,0.4,0.2,1,0,1.2c-2.7,0.1-5.3-0.7-6.4-3.1
	C109.1,45.8,109.6,44.6,110.8,44.1z"/>
<path class="st2" d="M111.7,51.6c0.7-0.2,1.6,0.3,2,1.6c0.2,0.6,0.3,1.2,0.3,1.8c-0.1,0-0.2,0.1-0.3,0.1c-0.7,0.2-1.2,0.9-1,1.6
	c0,0.1,0.1,0.2,0.1,0.3c0.4,1.3,1.9,1.1,3.1,0.7c0.8-0.3,1.6-0.4,2.4-0.6l-0.1-0.1c-1.7-0.1-3.3-1.2-3.8-2.9
	c-0.9-2.6,0.3-3.6,2.5-4.3c1.3-0.5,2.9-0.9,4.8-1.4c0.4,0.5,0.7,1.2,0.9,1.8c0.3,0.6,0.4,1.2,0.4,1.9c-1.2,0.3-2.8,0.8-3.9,1.2
	c-1.5,0.5-2.5,1.1-2.3,1.8c0.4,1.2,2.5,1.3,4.6,0.6c0.9-0.3,1.6-0.5,2.6-0.9c0.7,1.1,1.1,2.3,1.3,3.6c-1,0.3-2.3,0.7-3.2,1
	c-2.2,0.8-3.7,1.6-5,2.1c-2.4,0.8-4.3-0.6-5.6-4.2S110.8,52,111.7,51.6z"/>
<path class="st2" d="M20,96.1c0.7-0.4,1.5-0.3,2.1,0.1c0,0,0-0.1,0.1-0.1c1.5-0.4,3-0.8,4.5-1.4c0.9,0.7,1.6,1.6,2.2,2.7
	c0.2,0.3,0.3,0.7,0.4,1c-0.1,0-0.2,0-0.2,0c-1.1,0.6-2.3,4.6-4.4,5.7c-1.6,0.9-3.7,0.1-5.3-2.8C18,98.7,18.8,96.8,20,96.1z
	 M20.4,100.7c0.3,0.7,1.1,1,1.8,0.7c0.1,0,0.1-0.1,0.2-0.1c1.1-0.6,2.4-2.7,3.5-4.6c-1,0.3-1.9,0.6-2.9,0.8c0.2,0.6,0.1,1.2-0.4,1.6
	c-0.6-0.2-1.3-0.1-1.8,0.2c-0.5,0.2-0.7,0.8-0.4,1.3C20.3,100.6,20.3,100.7,20.4,100.7L20.4,100.7z"/>
<path class="st2" d="M26.8,104.7c1.1-0.9,2.3-1.8,3.7-2.7c0.5,0.3,1,0.8,1.3,1.2c0.4,0.4,0.8,0.9,1,1.5c-0.9,0.6-1.9,1.3-2.8,2
	c-1.2,1.1-2.2,2.1-1.7,2.6s2,0.3,3.5-0.4c0.1,0.1,0.2,0.2,0.3,0.3c0.3,0.4,0.4,0.9,0.2,1.1c-2.6,0.8-5.2,0.8-6.6-0.9
	S25,106.2,26.8,104.7z M32.2,100.3c0.5-0.4,1.6-0.1,2.3,0.8s0.9,2,0.3,2.4s-1.6,0.1-2.3-0.8S31.7,100.7,32.2,100.3z"/>
<path class="st2" d="M36.4,115.4c0.7-0.8,2.1-1.9,2.7-2.7c0.5-0.6,0.7-1.1,0.2-1.6c-0.9-0.8-3.2,0.3-4.5,1.8
	c-0.7,0.7-1.3,1.5-1.8,2.4c-0.6-0.2-1.2-0.5-1.6-1c-0.5-0.4-1-0.9-1.3-1.5c1.2-1.2,2.8-3.1,4.2-4.7l1.3-1.5c0.6,0.2,1.1,0.6,1.6,1
	c0.4,0.3,0.7,0.6,0.9,1c-0.6,0.5-1.1,1-1.6,1.6l0.1,0.1c1.8-0.9,3.9-0.7,5.5,0.6c1.7,1.5,1.4,2.7,0.3,4c-0.6,0.7-2,2-2.4,2.4
	c-0.6,0.7-0.8,1.2-0.3,1.6c0.7,0.6,2.1,0,3.5-1c0.1,0,0.3,0.1,0.4,0.2c0.4,0.3,0.6,0.8,0.4,1c-2.4,1.2-5,1.6-6.9,0
	C35.2,117.6,35.4,116.5,36.4,115.4z"/>
<path class="st2" d="M43.5,117.9c1.3-2.6,4.5-3.6,7.1-2.2c0,0,0,0,0.1,0c2.1,1.1,2.4,2.8,1.8,3.9c-0.4,0.9-1.6,1.3-2.5,0.9
	c0,0-0.1,0-0.1-0.1c-0.8-0.4-1.1-1.1-0.8-1.7c0.5-0.1,1-0.5,1.2-1c0.2-0.4,0.2-0.8-0.2-1c-0.8-0.4-2.1,0.6-2.8,2.1s-1,3.6,1,4.7
	s3.7,0,4.8-1.2c0.1,0,0.3,0.1,0.4,0.1c0.4,0.2,0.8,0.6,0.6,0.9c-2.1,1.7-4.8,2.7-8.1,1S42.4,119.9,43.5,117.9z"/>
<path class="st2" d="M54.3,121c1.5-2.5,4.7-3.4,7.2-1.9c0.1,0,0.1,0.1,0.1,0.1c2,1.1,2.3,2.7,1.6,3.8c-0.8,1.4-3.1,2.1-5.7,0.5
	l-0.1-0.1c-0.4,1.3,0.1,2.7,1.3,3.4c1.7,0.9,3.8,0.6,5-0.9c0.1,0,0.3,0.1,0.4,0.1c0.4,0.2,0.7,0.7,0.6,0.9c-2.3,2-5.7,2.2-8.2,0.5
	C53.4,125.6,53.2,122.9,54.3,121z M57.9,122.4c0.1,0.1,0.2,0.1,0.3,0.2c1.1,0.7,2.4-0.2,3-1.1c0.3-0.6,0.4-1.2-0.1-1.4
	c-0.7-0.4-2.1,0.6-2.9,2C58.1,122.2,58,122.3,57.9,122.4z"/>
<path class="st2" d="M72,128.7c-0.6,0.1-1.2,0.3-1.7,0.6c-0.2,0-0.4-0.1-0.4-0.3c0,0,0,0,0,0c-0.2-0.8,1.8-2.6,3.7-5
	c1.5-2.1,2.4-4.7,2.2-6.2c0-0.8-0.8-1.5-1.6-1.4c-0.1,0-0.3,0-0.4,0.1c-1.1,0.2-1.9,1.4-1.6,2.5c0,0,0,0.1,0,0.1
	c0.1,0.8,0.6,1.6,1.4,1.9c0,0.7-0.8,1.3-1.8,1.5c-1.8,0.3-2.7-0.6-2.9-1.8c-0.4-2,1.2-4.8,5.4-5.5c3.3-0.6,5.2,0.3,5.5,2
	c0.4,2.4-2.3,6.2-5.9,9.4c0.9-0.1,2-0.3,2.9-0.4c1.6-0.3,3-0.7,3.6-1.5c0.5,0.1,0.9,0.5,1,1c0.2,0.9-0.5,2.2-2.3,2.6
	C76.3,128.7,73.5,128.4,72,128.7z"/>
<path class="st2" d="M83.5,122.1c-0.7-1.5-0.8-3.3-0.2-4.9c0.1-2.1,1.4-3.9,3.4-4.5c3.9-1.6,6.7,0.5,8,3.5c1.4,3.3,0.7,7.7-3.2,9.3
	S84.7,125,83.5,122.1z M91.1,124.3c1.5-0.6,1-3.6-0.1-6.3c-0.9-2.2-2.6-4.8-4.2-4.1c-1.1,0.4-1,1.9-0.6,3.1c0.2,0.7,0.7,1.3,1.4,1.6
	c-0.2,0.4-0.6,0.8-1,1c0.1,0.2,0.2,0.4,0.2,0.6C88,122.7,89.5,125,91.1,124.3z"/>
<path class="st2" d="M97.2,116c-1.2-1.2-1.8-2.9-1.8-4.6c-0.6-2,0.1-4.1,1.7-5.4c3.2-2.7,6.5-1.7,8.7,0.8c2.4,2.7,3.1,7.1-0.1,9.9
	S99.1,118.3,97.2,116z M105.1,115.6c1.2-1-0.2-3.8-2.1-5.9c-1.5-1.8-3.9-3.8-5.3-2.6c-0.9,0.8-0.4,2.1,0.5,3.1
	c0.4,0.6,1.1,1,1.8,1.1c-0.1,0.5-0.3,0.9-0.6,1.3l0.4,0.5C101.5,115.1,103.7,116.8,105.1,115.6L105.1,115.6z"/>
<path class="st2" d="M114.6,106.7c-0.9-0.6-1.7-1.3-2.5-2c-1.5-1.4-3-2.8-4.3-4.4c0.2,1.1-0.1,2.3-0.7,3.2c-0.4,0.4-0.9,0.6-1.2,0.4
	c0.4-2.2,0.2-4.4-0.4-6.5c0.2-0.3,0.4-0.6,0.6-0.8c0.4-0.5,0.9-1,1.5-1.3c1.5,1.6,3.1,3.2,4.8,4.7c1.5,1.3,3.1,2.6,4.7,3.7
	c-0.2,0.6-0.5,1.2-1,1.6C115.8,105.9,115.2,106.3,114.6,106.7z"/>
<circle class="st3" cx="68.3" cy="70.4" r="40.3"/>
<path class="st4" d="M65,42.4l-0.3-0.9l0.6-0.1c-0.7-1-4.8-1.3-10.4-0.3s-9.3,2.9-9.6,4l0.6-0.1c0,0.3,0,0.6,0.1,0.9
	c1.4,0.6,5.1,0.8,9.8-0.1S63.9,43.5,65,42.4z"/>
<path class="st4" d="M46,46.4c0.2,2,0.4,4,0.8,6c2.8,15.1,9.9,24.7,14.6,23.9s7.9-12.4,5.2-27.5c-0.4-2-0.8-4-1.4-5.9
	c-1.6,1.3-5.4,2.6-9.3,3.4S48,47.1,46,46.4z"/>
<path class="st2" d="M54.9,41.1c5.6-1,9.7-0.7,10.4,0.3l0.5-0.1c-0.7-1.6-6-1.6-11-0.6s-9.9,2.8-10,4.5l0.5-0.1
	C45.6,43.9,49.4,42.1,54.9,41.1z"/>
<path class="st2" d="M55.8,45.8c-4.7,0.9-8.4,0.7-9.8,0.1c0,0.2,0,0.3,0,0.5c2,0.7,6,0.5,9.9-0.2s7.7-2,9.3-3.4
	c0-0.2-0.1-0.3-0.1-0.5C63.9,43.5,60.5,44.9,55.8,45.8z"/>
<path class="st2" d="M46,46.4c0-0.2,0-0.4,0-0.5c-0.4-0.2-0.6-0.4-0.7-0.6c0-0.1,0-0.2,0-0.2l-0.5,0.1c0,0.1,0,0.1,0,0.2
	C44.9,45.8,45.3,46.2,46,46.4z"/>
<path class="st2" d="M65.4,41.6c0,0.3-0.1,0.6-0.4,0.8c0,0.2,0.1,0.3,0.1,0.5c0.6-0.5,0.8-0.9,0.8-1.4c0-0.1,0-0.1-0.1-0.2l-0.5,0.1
	C65.4,41.4,65.4,41.5,65.4,41.6z"/>
<path class="st5" d="M48.6,46.7c-0.1,4.5,2.9,23.8,7.8,27.9c0,0-6.7-17.2-5.7-27.9L48.6,46.7z"/>
<path class="st5" d="M62.7,44.1c1.7,4.1,5.8,23.3,2.6,28.9c0,0,0.1-18.5-4.6-28.1L62.7,44.1z"/>
<path class="st6" d="M49.2,62l3.2,7.6l6,7.4l2.7-0.5l-2.7-14.6C55,62.4,51.3,62.6,49.2,62z"/>
<path class="st7" d="M58.7,61.7h-0.1h-0.1l2.7,14.6l4.3-0.8l1.9-9.2l0.9-8.5C67.3,59.3,63,60.9,58.7,61.7z"/>
<path class="st8" d="M47.7,60.9c0.1,0.5,0.7,0.9,1.6,1.1c2,0.6,5.7,0.4,9.2-0.2l-1-5.6C52.4,57.1,47.4,59.1,47.7,60.9z"/>
<path class="st2" d="M44.8,45.4L44.8,45.4c0-0.1,0-0.2,0-0.2C44.8,45.2,44.8,45.3,44.8,45.4z"/>
<path class="st2" d="M65.9,41.5c0.1,0.4-0.2,0.9-0.8,1.4c0.6,1.9,1,3.9,1.4,5.9c2.8,15.1-0.5,26.6-5.2,27.5s-11.8-8.7-14.6-23.9
	c-0.4-2-0.6-4-0.8-6c-0.7-0.2-1.1-0.6-1.2-1c0.1,3.1,0.4,6.3,0.9,9.4c2.7,14.7,9.8,25.7,16,24.9H62l0,0c6.2-1.1,9.1-14.1,6.4-29
	C67.8,47.6,66.3,42.6,65.9,41.5z"/>
<path class="st2" d="M65.9,41.3c0,0,0,0.1,0.1,0.2l0,0C65.9,41.4,65.9,41.4,65.9,41.3z"/>
<path class="st9" d="M65,92.7l-2.6-14l-0.6,0.1l4.7,25.6h0.1c6-1.1,9.6-3.2,10-4c-0.5-0.2-2-0.7-6.5-2.2
	C67.6,97.5,65.6,95.4,65,92.7z"/>
<path class="st2" d="M70.3,97.9c-2.5-0.7-4.3-2.7-4.9-5.2l-2.6-14.3l-1.8,0.3L63.6,93c0.4,2.5-0.7,5.1-2.7,6.6
	c-2.5,2.1-5.6,4.5-5.5,4.5c0.2,1.1,5.4,1.7,11.4,0.6s10.6-3.5,10.3-4.6C77.1,100.1,73.4,98.9,70.3,97.9z M66.7,104.4h-0.1h-0.2
	c-5.8,1-10,0.4-10.6-0.2c0.4-0.3,1.6-1.3,5.3-4.3c2.2-1.6,3.3-4.3,2.8-6.9l-2.6-14l1.1-0.2l2.6,14c0.6,2.6,2.5,4.7,5.1,5.5
	c4.6,1.5,6,2,6.5,2.2C76.3,101.2,72.7,103.3,66.7,104.4z"/>
<path class="st6" d="M61.4,78.9l2.6,14c0.4,2.7-0.7,5.3-2.8,6.9c-3.7,3-5,4-5.3,4.3c0.6,0.6,4.8,1.2,10.6,0.2h0.2l-4.7-25.6
	L61.4,78.9z"/>
<path class="st10" d="M57.7,56.1h-0.1h-0.1l1,5.6h0.1h0.1c4.3-0.8,8.6-2.4,9.6-3.9c0.2-0.2,0.2-0.5,0.2-0.8
	C68.2,55.3,62.8,55.2,57.7,56.1z"/>
<ellipse transform="matrix(0.9835 -0.181 0.181 0.9835 -10.6839 11.2676)" class="st11" cx="56.4" cy="64.2" rx="1.3" ry="1.1"/>
<ellipse transform="matrix(0.9835 -0.181 0.181 0.9835 -10.8654 12.0914)" class="st11" cx="60.8" cy="65.6" rx="0.8" ry="0.7"/>
<ellipse transform="matrix(0.9835 -0.181 0.181 0.9835 -11.3255 11.7845)" class="st11" cx="58.9" cy="67.9" rx="0.5" ry="0.4"/>
<ellipse transform="matrix(0.9835 -0.181 0.181 0.9835 -11.4039 12.3846)" class="st11" cx="62.1" cy="68.7" rx="1" ry="0.9"/>
<ellipse transform="matrix(0.9835 -0.1807 0.1807 0.9835 -11.9918 11.7275)" class="st11" cx="58.4" cy="71.7" rx="0.8" ry="0.7"/>
<path class="st4" d="M90.7,50.2c0-0.3,0-0.6,0.1-0.8l0.5,0.1c-0.2-1-3.6-2.7-8.6-3.6s-8.7-0.7-9.3,0.2l0.5,0.1
	c-0.1,0.3-0.2,0.5-0.2,0.8c1,1,4,2.3,8.2,3.1S89.4,50.8,90.7,50.2z"/>
<path class="st4" d="M73.6,47.4c-0.5,1.7-1,3.5-1.3,5.3c-2.6,13.5,0.2,23.9,4.4,24.7s10.7-7.7,13.3-21.3c0.3-1.8,0.6-3.6,0.8-5.4
	c-1.8,0.6-5.4,0.4-8.8-0.2S75,48.6,73.6,47.4z"/>
<path class="st2" d="M82.8,45.8c5,1,8.3,2.6,8.6,3.6l0.5,0.1c-0.1-1.5-4.5-3.3-9-4.1s-9.2-0.9-9.8,0.5l0.5,0.1
	C74,45.2,77.8,44.9,82.8,45.8z"/>
<path class="st2" d="M81.9,50.1c-4.2-0.8-7.2-2.1-8.2-3.1c0,0.1-0.1,0.3-0.1,0.4c1.4,1.2,4.8,2.4,8.3,3.1s7.1,0.8,8.8,0.2
	c0-0.1,0-0.3,0-0.4C89.4,50.8,86.1,50.9,81.9,50.1z"/>
<path class="st2" d="M73.6,47.4c0-0.1,0.1-0.3,0.1-0.4c-0.2-0.2-0.3-0.4-0.3-0.7c0-0.1,0-0.1,0.1-0.2L73,46c0,0.1-0.1,0.1-0.1,0.2
	C72.8,46.5,73.1,46.9,73.6,47.4z"/>
<path class="st2" d="M91.3,49.7c0,0.2-0.2,0.4-0.6,0.5c0,0.1,0,0.3,0,0.4c0.6-0.2,1-0.5,1.1-0.9c0-0.1,0-0.1,0-0.2l-0.5-0.1
	C91.4,49.5,91.4,49.6,91.3,49.7z"/>
<path class="st5" d="M75.7,48.4c-1.6,3.7-5.4,20.8-2.6,25.9c0,0,0-16.5,4.3-25.1L75.7,48.4z"/>
<path class="st5" d="M88.2,50.9c0.1,4-2.8,21.3-7.2,24.9c0,0,6.2-15.4,5.3-24.9L88.2,50.9z"/>
<path class="st6" d="M71.2,61.4l0.2,7.3l2.6,8.1l2.4,0.5L79,64.2C75.8,63.6,72.7,62.6,71.2,61.4z"/>
<path class="st7" d="M79.2,64.3L79.2,64.3H79l-2.5,13.1l3.9,0.8l4.6-7.1l3.5-6.8C87.1,65.1,83,65,79.2,64.3z"/>
<path class="st8" d="M70.2,60c-0.1,0.5,0.3,1,0.9,1.5c1.5,1.1,4.6,2.2,7.8,2.8l1-5C75.4,58.4,70.5,58.4,70.2,60z"/>
<path class="st2" d="M72.9,46.1L72.9,46.1c0-0.1,0.1-0.1,0.1-0.2C72.9,46,72.9,46,72.9,46.1z"/>
<path class="st2" d="M91.8,49.8c-0.1,0.4-0.5,0.7-1.1,0.9c-0.2,1.8-0.4,3.6-0.8,5.4c-2.6,13.5-9.1,22.1-13.3,21.3s-7-11.1-4.4-24.7
	c0.3-1.8,0.8-3.6,1.3-5.3c-0.5-0.4-0.7-0.8-0.7-1.2c-1,2.6-1.7,5.4-2.3,8.1c-2.5,13.1-0.2,24.6,5.2,26h0.2l0,0
	c5.6,1.1,12.2-8.8,14.8-22.1C91.4,55.5,91.7,50.8,91.8,49.8z"/>
<path class="st2" d="M91.8,49.6c0,0,0,0.1,0,0.2l0,0C91.8,49.7,91.8,49.6,91.8,49.6z"/>
<path class="st9" d="M74.3,92.2l2.4-12.5l-0.5-0.1l-4.4,22.8h0.1c5.3,1,9.1,0.5,9.6-0.1c-0.3-0.3-1.4-1.2-4.7-3.9
	C74.9,97,73.9,94.6,74.3,92.2z"/>
<path class="st2" d="M77,98.2c-1.9-1.4-2.8-3.7-2.4-6l2.5-12.8l-1.7-0.3L73,91.9c-0.5,2.2-2.2,4-4.4,4.6c-2.8,0.9-6.1,1.9-6.1,2
	c-0.2,1,4,3.2,9.4,4.2s9.9,0.5,10.1-0.4C81.9,102.3,79.3,100.1,77,98.2z M71.9,102.5L71.9,102.5h-0.3c-5.2-1-8.4-2.9-8.8-3.6
	c0.4-0.1,1.8-0.6,5.9-1.9c2.3-0.6,4.1-2.5,4.6-4.9l2.4-12.5l1,0.2l-2.4,12.5c-0.4,2.4,0.6,4.8,2.5,6.2c3.3,2.7,4.4,3.6,4.7,3.9
	C80.9,102.9,77.2,103.5,71.9,102.5L71.9,102.5z"/>
<path class="st6" d="M75.7,79.5L73.3,92c-0.5,2.4-2.3,4.2-4.6,4.9c-4.1,1.3-5.4,1.7-5.9,1.9c0.3,0.7,3.6,2.6,8.8,3.6h0.2l4.4-22.8
	L75.7,79.5z"/>
<path class="st10" d="M80.1,59.3L80.1,59.3h-0.2l-1,5H79h0.1c3.9,0.7,8,0.8,9.3-0.1c0.2-0.1,0.4-0.3,0.4-0.6
	C89.1,62,84.7,60.2,80.1,59.3z"/>
<ellipse transform="matrix(0.19 -0.9818 0.9818 0.19 -2.4857 128.147)" class="st11" cx="76.4" cy="65.6" rx="1" ry="1.1"/>
<ellipse transform="matrix(0.19 -0.9818 0.9818 0.19 -2.4428 133.4316)" class="st11" cx="79.6" cy="68.2" rx="0.6" ry="0.7"/>
<ellipse transform="matrix(0.19 -0.9818 0.9818 0.19 -5.6627 132.1926)" class="st11" cx="77.3" cy="69.5" rx="0.4" ry="0.5"/>
<ellipse transform="matrix(0.19 -0.9818 0.9818 0.19 -5.3083 135.9902)" class="st11" cx="79.8" cy="71.2" rx="0.8" ry="0.9"/>
<ellipse transform="matrix(0.19 -0.9818 0.9818 0.19 -10.2487 133.7051)" class="st11" cx="75.9" cy="73.1" rx="0.6" ry="0.7"/>
<polygon class="st2" points="73.3,35.4 72.2,39.4 74.3,40.3 72,39.9 70.6,43.8 71.8,39.8 69.7,38.9 71.9,39.3 "/>
</svg>
