<svg id="レイヤー_1" data-name="レイヤー 1" xmlns="http://www.w3.org/2000/svg" viewBox="0 0 716.31 138.18"><defs><style>.cls-1,.cls-4{fill:#d26ea8;}.cls-1{stroke:#d26ea8;stroke-width:2.5px;}.cls-2{fill:#e8a1c5;stroke-width:0.99px;}.cls-2,.cls-4{stroke:#fff;}.cls-10,.cls-11,.cls-12,.cls-3,.cls-7,.cls-8,.cls-9{fill:#fff;}.cls-5{fill:none;}.cls-6{fill:#fcfcfb;}.cls-10,.cls-11,.cls-12,.cls-7,.cls-8,.cls-9{isolation:isolate;}.cls-7{opacity:0.25;}.cls-8{opacity:0.6;}.cls-9{opacity:0.3;}.cls-10{opacity:0.4;}.cls-11{opacity:0.5;}.cls-12{opacity:0.8;}</style></defs><circle class="cls-1" cx="69.09" cy="69.09" r="67.84"/><circle class="cls-2" cx="69.09" cy="69.09" r="64.67"/><path class="cls-3" d="M20.72,58.07c-1.76-.87-4.32-3-6-3.86-.9-.44-1.71-.35-2.12.48-.49,1,.3,2.1,1.39,2.63a2.32,2.32,0,0,0,2.68-.14,2,2,0,0,1,.19,2.49c-.76,1.57-1.94,1.82-3,1.29C12,60,10.31,56.63,12,53.2c1.45-2.94,3.43-2.82,5.35-1.88,1.29.64,3.89,2.15,4.74,2.57s1.74.61,2.06,0c.63-1.3-1.56-4-4.79-5.9l-.4-.2-1.92-1a9,9,0,0,1,.69-1.88,7.14,7.14,0,0,1,1.08-1.69c3,1.26,9,3.82,9.88,2.08.49-1-1.19-2.38-3.3-3.42-3.08-1.51-5.8-1.69-6.51-1.06-.44-.37-.53-1.2,0-2.21,1-2.06,3.09-1.49,5.42-.35C27.92,40.07,31.74,44,30,47.55c-1.2,2.45-3.47,2.74-5.87,2.2,1.44,2,2.32,4.27,1.08,6.8C24,58.9,22.43,58.91,20.72,58.07Z"/><path class="cls-3" d="M29,39.07a5.24,5.24,0,0,1,.08-7.4l.18-.16a2.85,2.85,0,0,1,3.34-.72l.1-.1L32.18,30a4.35,4.35,0,0,1,1-1.26,4,4,0,0,1,1.31-1c.82,1,1.71,2,2.5,2.79,1.19,1.25,2.17,2.12,2.79,1.54s.25-2.11-.55-3.58a1.31,1.31,0,0,1,.27-.35c.36-.34.87-.55,1.12-.33.89,2.56,1,5.19-.68,6.8-1.37,1.3-2.75,1.2-3.72,0l-.12.12A4.12,4.12,0,0,1,35,39.3a4,4,0,0,1-6-.23Zm4.76-6.4c-.88-.92-2.07-1.18-2.82-.47-1.07,1-.4,2.68.76,3.9.77.8,2.18,1.57,3,.8s.39-2.8-1-4.23Z"/><path class="cls-3" d="M48.76,26.41c-.51-1-1-2.62-1.43-3.56-.36-.7-.79-1.12-1.47-.77-1.12.58-1.06,3.14-.16,4.89a17.68,17.68,0,0,0,1.5,2.56,4.35,4.35,0,0,1-1.66,1.18,5.07,5.07,0,0,1-2,.69c-.7-1.59-1.8-3.79-2.76-5.66L39.89,24a6.07,6.07,0,0,1,1.64-1.15,3.5,3.5,0,0,1,1.36-.47,14.41,14.41,0,0,0,.8,2.1l.15-.07a5.17,5.17,0,0,1,2.82-5c2.14-1.1,3.14-.34,3.92,1.17.43.83,1.07,2.6,1.35,3.15.41.8.84,1.16,1.42.86.9-.46.88-2,.53-3.62a1.14,1.14,0,0,1,.36-.26c.44-.22,1-.28,1.17,0,.13,2.71-.53,5.3-2.89,6.51C50.41,28.31,49.44,27.69,48.76,26.41Z"/><path class="cls-3" d="M65.65,21.22c.22-1.94,1.41-5.07,1.62-6.93.11-1-.24-1.72-1.16-1.83-1.12-.13-1.87,1-2,2.19a2.31,2.31,0,0,0,1,2.47,2,2,0,0,1-2.29,1c-1.73-.2-2.36-1.23-2.22-2.42.24-2.12,2.89-4.78,6.68-4.35,3.25.38,3.81,2.29,3.56,4.41-.16,1.43-.72,4.37-.83,5.31s0,1.85.71,1.93c1.44.17,3.26-2.8,4-6.47v-.45L75,14a8.36,8.36,0,0,1,2,0,7.63,7.63,0,0,1,2,.45c-.2,3.19-.57,9.77,1.35,10,1.12.13,1.85-1.91,2.11-4.25.39-3.39-.35-6-1.18-6.48.2-.53,1-.89,2.07-.76,2.28.26,2.44,2.4,2.15,5-.46,4-2.92,8.93-6.8,8.48-2.71-.31-3.74-2.35-4-4.79-1.38,2-3.24,3.61-6,3.28S65.43,23.12,65.65,21.22Z"/><path class="cls-3" d="M85.14,22.64a40.07,40.07,0,0,1,2-4.08,6.24,6.24,0,0,1,1.85.53,5.3,5.3,0,0,1,1.67.9,30.4,30.4,0,0,0-1.48,3.08c-.62,1.51-.92,2.85-.24,3.13.84.34,2-.67,3-2a1.08,1.08,0,0,1,.43.1c.46.19.86.57.76.88-2,1.88-4.3,3.08-6.56,2.17S84.3,24.72,85.14,22.64Zm2.74-6.49c.27-.65,1.4-.82,2.51-.37s1.81,1.36,1.54,2-1.39.81-2.5.36S87.63,16.79,87.88,16.15Z"/><path class="cls-3" d="M96.76,29.82c.62-.9,1.86-2.07,2.46-2.93.45-.65.62-1.23,0-1.66-1-.72-3.26.54-4.39,2.16a19.14,19.14,0,0,0-1.55,2.52A4.47,4.47,0,0,1,91.46,29a5,5,0,0,1-1.54-1.42c1.08-1.36,2.5-3.36,3.69-5.09l1.11-1.61a5.77,5.77,0,0,1,1.8.91,3.7,3.7,0,0,1,1,1,12.54,12.54,0,0,0-1.47,1.7l.13.09a5.18,5.18,0,0,1,5.69.16c2,1.37,1.78,2.61.81,4-.52.76-1.79,2.16-2.14,2.67-.51.74-.62,1.28-.09,1.66.83.57,2.17-.16,3.45-1.23a1.18,1.18,0,0,1,.39.19c.41.28.72.74.55,1-2.33,1.39-4.92,2-7.09.51C95.81,32.19,95.91,31.05,96.76,29.82Z"/><path class="cls-3" d="M104.22,31.61a5.45,5.45,0,0,1,7.65.85l.11.15c1.53,1.85,1.36,3.48.38,4.29-1.21,1-3.67.82-5.71-1.64l-.1-.13a2.93,2.93,0,0,0,.22,3.75,4.09,4.09,0,0,0,5.13,1,1,1,0,0,1,.33.29c.32.38.49.91.25,1.14a7.31,7.31,0,0,1-8.16-2.58C101.83,35.75,102.44,33.08,104.22,31.61Zm3,2.76a1.86,1.86,0,0,0,.21.28,2.32,2.32,0,0,0,3.22.06c.5-.42.72-1,.35-1.43-.57-.69-2.21-.25-3.47.79a1.67,1.67,0,0,0-.31.34Z"/><path class="cls-3" d="M110.8,44.1c.7-.33,4.46-1.37,4.88-1.57.24-.11.26-.21.17-.41s-.47-.74-.64-1.11a14.26,14.26,0,0,1-3.18.51,1.05,1.05,0,0,1-.25-.37c-.21-.44-.25-1,0-1.16a13.75,13.75,0,0,0,2.88-.83,1.87,1.87,0,0,1,.86-1.95,1.94,1.94,0,0,1,2.41,1.2c.33.69-.26,1.48-1.37,2.07l0,.1c.37.79,1.32,1.94,1.79,2.93.55,1.15.36,1.85-.94,2.47-1,.45-2.52.89-3.57,1.4-.66.31-1.52.72-1.15,1.51.46,1,2,1,3.62.69a1.05,1.05,0,0,1,.25.37c.21.44.25,1,0,1.16-2.72,0-5.27-.67-6.44-3.13C109.13,45.83,109.65,44.64,110.8,44.1Z"/><path class="cls-3" d="M111.66,51.65c.68-.24,1.56.34,2,1.61a4.73,4.73,0,0,1,.28,1.75,1.89,1.89,0,0,0-.34.09,1.34,1.34,0,0,0-1,1.63,1.25,1.25,0,0,0,.09.25c.44,1.26,1.9,1.15,3.15.74a16.07,16.07,0,0,1,2.37-.58l0-.15a4.07,4.07,0,0,1-3.77-2.87c-.9-2.55.28-3.55,2.5-4.33,1.3-.46,2.94-.87,4.75-1.42a6.27,6.27,0,0,1,.85,1.79A5.74,5.74,0,0,1,123,52c-1.23.34-2.78.8-3.88,1.19-1.52.54-2.51,1.09-2.26,1.81.41,1.16,2.54,1.31,4.57.65.9-.29,1.58-.53,2.55-.87a9,9,0,0,1,1.28,3.63c-1,.31-2.26.68-3.18,1-2.23.78-3.72,1.6-5,2.06-2.37.83-4.33-.65-5.59-4.23S110.75,52,111.66,51.65Z"/><path class="cls-3" d="M20,96.13a1.93,1.93,0,0,1,2.09.09l.09-.08a36.89,36.89,0,0,0,4.48-1.4,8.21,8.21,0,0,1,2.16,2.67,4.44,4.44,0,0,1,.43,1,.53.53,0,0,0-.25,0C28,99,26.68,103,24.65,104.14c-1.61.88-3.68.08-5.26-2.82C18,98.72,18.79,96.81,20,96.13Zm.35,4.61a1.37,1.37,0,0,0,1.81.68l.19-.1c1.1-.6,2.45-2.69,3.49-4.62a18.33,18.33,0,0,1-2.93.78,1.33,1.33,0,0,1-.39,1.57,2.63,2.63,0,0,0-1.85.17,1,1,0,0,0-.44,1.34.78.78,0,0,0,.11.18Z"/><path class="cls-3" d="M26.77,104.75c1.09-.91,2.31-1.76,3.65-2.68a5.41,5.41,0,0,1,1.32,1.25,4.92,4.92,0,0,1,1,1.5c-.87.59-1.9,1.32-2.76,2-1.25,1.05-2.16,2.08-1.71,2.61s2,.28,3.5-.44a1.18,1.18,0,0,1,.32.27c.3.35.45.86.22,1.09-2.58.78-5.15.81-6.62-.94S25,106.2,26.77,104.75Zm5.47-4.44c.54-.45,1.59-.12,2.31.75s.88,2,.34,2.41-1.57.1-2.3-.76S31.71,100.75,32.24,100.31Z"/><path class="cls-3" d="M36.38,115.41c.71-.84,2-1.89,2.74-2.68.51-.6.74-1.15.19-1.62-.9-.77-3.2.29-4.49,1.79a17,17,0,0,0-1.8,2.35,4.09,4.09,0,0,1-1.64-1,4.37,4.37,0,0,1-1.3-1.5c1.21-1.25,2.82-3.1,4.19-4.69l1.27-1.49a5.18,5.18,0,0,1,1.61,1,3.41,3.41,0,0,1,.89,1,14,14,0,0,0-1.63,1.55l.11.1a4.92,4.92,0,0,1,5.46.57c1.72,1.48,1.38,2.67.27,4-.6.7-2,2-2.4,2.44-.58.68-.76,1.21-.29,1.61.73.62,2.1,0,3.46-1a.84.84,0,0,1,.36.22c.36.3.59.77.4,1-2.41,1.19-5,1.61-6.88,0C35.17,117.6,35.41,116.49,36.38,115.41Z"/><path class="cls-3" d="M43.5,117.91a5.27,5.27,0,0,1,7.11-2.23l.06,0c2.12,1.12,2.39,2.82,1.81,3.93a1.88,1.88,0,0,1-2.5.91l-.11-.06c-.85-.45-1.1-1.13-.79-1.7a2,2,0,0,0,1.23-1c.22-.41.24-.83-.17-1-.76-.4-2.07.65-2.83,2.09s-1,3.62,1,4.66,3.71,0,4.83-1.19a1.06,1.06,0,0,1,.39.13c.41.22.75.63.62.93a6.92,6.92,0,0,1-8.09,1C42.76,122.7,42.43,120,43.5,117.91Z"/><path class="cls-3" d="M54.35,121a5.29,5.29,0,0,1,7.24-1.88l.15.09c2,1.15,2.29,2.71,1.64,3.8-.8,1.36-3.1,2-5.7.52l-.13-.08a2.79,2.79,0,0,0,1.33,3.36,4,4,0,0,0,5-.9.93.93,0,0,1,.39.15c.4.23.72.66.57,1a6.93,6.93,0,0,1-8.22.52C53.42,125.62,53.18,122.94,54.35,121Zm3.57,1.44a1.67,1.67,0,0,0,.28.18c1.11.66,2.41-.17,3-1.08.33-.56.36-1.16-.11-1.44-.73-.43-2.1.55-2.93,2A2.08,2.08,0,0,0,57.92,122.41Z"/><path class="cls-3" d="M72,128.67a4.35,4.35,0,0,0-1.7.61.34.34,0,0,1-.41-.25h0c-.15-.81,1.84-2.57,3.69-5,1.54-2,2.45-4.68,2.16-6.23a1.53,1.53,0,0,0-1.61-1.44,1.34,1.34,0,0,0-.39.07,2.11,2.11,0,0,0-1.63,2.49s0,.09,0,.14a2.55,2.55,0,0,0,1.4,1.93c0,.74-.77,1.34-1.81,1.53-1.8.33-2.67-.56-2.9-1.79-.36-2,1.2-4.78,5.36-5.54,3.29-.6,5.19.31,5.49,2,.43,2.35-2.29,6.23-5.9,9.38.91-.14,2-.26,3-.44,1.55-.28,3-.7,3.58-1.49a1.19,1.19,0,0,1,1,1c.17.93-.5,2.24-2.35,2.58C76.35,128.66,73.53,128.41,72,128.67Z"/><path class="cls-3" d="M83.54,122.15a6.38,6.38,0,0,1-.24-4.87,5,5,0,0,1,3.36-4.54c3.89-1.58,6.7.46,8,3.53,1.36,3.32.69,7.69-3.25,9.29S84.69,125,83.54,122.15Zm7.61,2.2c1.48-.6,1-3.61-.06-6.28-.89-2.17-2.55-4.8-4.19-4.13-1.08.44-1,1.91-.55,3.1a2.77,2.77,0,0,0,1.36,1.61,2,2,0,0,1-1,1c.07.19.16.4.24.6C88,122.74,89.52,125,91.15,124.35Z"/><path class="cls-3" d="M97.16,116a6.42,6.42,0,0,1-1.78-4.55,5,5,0,0,1,1.73-5.37c3.18-2.74,6.5-1.7,8.66.81,2.35,2.72,3.11,7.08-.11,9.85S99.15,118.27,97.16,116Zm7.91-.33c1.21-1-.17-3.76-2.06-5.94-1.53-1.79-3.94-3.75-5.29-2.59-.87.76-.37,2.13.47,3.11a2.84,2.84,0,0,0,1.81,1.1,2,2,0,0,1-.64,1.28l.43.49c1.75,2,3.95,3.69,5.24,2.55Z"/><path class="cls-3" d="M114.64,106.66a28.72,28.72,0,0,1-2.52-2,42.54,42.54,0,0,1-4.31-4.39,4.59,4.59,0,0,1-.67,3.25c-.39.44-.93.62-1.17.42a13,13,0,0,0-.44-6.47,3.93,3.93,0,0,1,.58-.82,5,5,0,0,1,1.54-1.29,60.69,60.69,0,0,0,4.82,4.67,43.18,43.18,0,0,0,4.72,3.7,4.09,4.09,0,0,1-1,1.61A4.59,4.59,0,0,1,114.64,106.66Z"/><circle class="cls-4" cx="68.31" cy="70.38" r="40.31"/><path class="cls-5" d="M65,42.41l-.27-.89.57-.11c-.68-1-4.85-1.33-10.4-.31s-9.31,2.85-9.6,4l.57-.1a4.17,4.17,0,0,0,.07.93c1.44.65,5.14.78,9.83-.08S63.93,43.49,65,42.41Z"/><path class="cls-5" d="M46,46.41c.17,2,.43,4,.8,6,2.78,15.14,9.93,24.73,14.61,23.87s7.94-12.37,5.15-27.51c-.37-2-.85-4-1.4-5.91-1.59,1.34-5.43,2.65-9.29,3.36S48,47.09,46,46.41Z"/><path class="cls-3" d="M55,41.06c5.55-1,9.72-.66,10.4.31l.52-.09c-.72-1.55-6-1.56-11-.65s-9.92,2.82-10,4.52l.52-.1C45.64,43.91,49.41,42.08,55,41.06Z"/><path class="cls-3" d="M55.82,45.8c-4.69.86-8.39.73-9.83.08v.52c2,.69,6,.54,9.87-.17s7.7-2,9.29-3.36a1.87,1.87,0,0,0-.14-.5C63.93,43.49,60.52,44.93,55.82,45.8Z"/><path class="cls-3" d="M46,46.41v-.52c-.38-.17-.61-.37-.65-.6a.89.89,0,0,1,0-.23l-.52.1a.81.81,0,0,0,0,.22C44.92,45.82,45.35,46.16,46,46.41Z"/><path class="cls-3" d="M65.44,41.58a1,1,0,0,1-.39.79,2.34,2.34,0,0,0,.14.5c.55-.47.83-.93.75-1.38a.58.58,0,0,0-.07-.21l-.52.09A1,1,0,0,1,65.44,41.58Z"/><path class="cls-6" d="M48.64,46.67c-.1,4.47,2.89,23.84,7.85,27.93,0,0-6.71-17.21-5.73-27.86Z"/><path class="cls-6" d="M62.68,44.09c1.69,4.14,5.79,23.3,2.61,28.89,0,0,.14-18.47-4.56-28.07Z"/><path class="cls-7" d="M49.25,62l3.2,7.55,6,7.35,2.72-.5-2.7-14.64C55,62.41,51.28,62.56,49.25,62Z"/><path class="cls-8" d="M58.72,61.73H58.5l2.7,14.64,4.31-.8,1.93-9.25.88-8.54C67.34,59.34,63,60.92,58.72,61.73Z"/><path class="cls-9" d="M47.69,60.87c.1.53.67.9,1.56,1.14,2,.55,5.72.4,9.25-.24l-1-5.59C52.39,57.13,47.37,59.13,47.69,60.87Z"/><path class="cls-3" d="M44.84,45.41h0v-.25A1,1,0,0,0,44.84,45.41Z"/><path class="cls-3" d="M65.94,41.51c.07.44-.21.9-.75,1.36.55,1.91,1,3.89,1.4,5.91,2.79,15.14-.48,26.65-5.15,27.51S49.61,67.56,46.83,52.41c-.37-2-.63-4-.8-6-.66-.24-1.09-.57-1.18-1a60,60,0,0,0,.94,9.36c2.7,14.66,9.81,25.67,16,24.86H62c6.25-1.15,9.09-14.13,6.36-29A91.65,91.65,0,0,0,65.94,41.51Z"/><path class="cls-3" d="M65.87,41.28a.62.62,0,0,0,.07.23h0A.62.62,0,0,0,65.87,41.28Z"/><path class="cls-10" d="M65,92.75l-2.58-14-.56.11,4.7,25.55h.11c6-1.1,9.63-3.2,10-4-.48-.17-2-.68-6.53-2.16A7.24,7.24,0,0,1,65,92.75Z"/><path class="cls-3" d="M70.31,97.9a7,7,0,0,1-4.9-5.22L62.77,78.34l-1.85.34L63.56,93a6.94,6.94,0,0,1-2.72,6.62c-2.53,2-5.55,4.48-5.54,4.52.2,1.1,5.43,1.67,11.45.57s10.55-3.48,10.35-4.58C77.09,100.11,73.41,98.91,70.31,97.9Zm-3.62,6.51h-.31c-5.78,1-10,.39-10.61-.22.39-.33,1.62-1.33,5.34-4.33A7.25,7.25,0,0,0,64,92.92l-2.57-14,1.06-.2,2.58,14a7.22,7.22,0,0,0,5.13,5.47c4.55,1.48,6,2,6.53,2.16C76.32,101.19,72.65,103.29,66.69,104.41Z"/><path class="cls-7" d="M61.38,79,64,93a7.25,7.25,0,0,1-2.84,6.94c-3.72,3-5,4-5.34,4.33.64.61,4.83,1.24,10.61.22h.2l-4.7-25.55Z"/><path class="cls-11" d="M57.69,56.13h-.22l1,5.59h.22c4.34-.81,8.62-2.39,9.6-3.91a1.2,1.2,0,0,0,.19-.78C68.19,55.3,62.78,55.21,57.69,56.13Z"/><ellipse class="cls-12" cx="56.38" cy="64.16" rx="1.28" ry="1.09" transform="translate(-10.68 11.27) rotate(-10.43)"/><ellipse class="cls-12" cx="60.81" cy="65.57" rx="0.77" ry="0.66" transform="translate(-10.87 12.09) rotate(-10.43)"/><ellipse class="cls-12" cx="58.89" cy="67.94" rx="0.51" ry="0.44" transform="translate(-11.33 11.78) rotate(-10.43)"/><ellipse class="cls-12" cx="62.14" cy="68.66" rx="1.02" ry="0.88" transform="translate(-11.4 12.38) rotate(-10.43)"/><ellipse class="cls-12" cx="58.39" cy="71.7" rx="0.77" ry="0.66" transform="translate(-11.99 11.73) rotate(-10.41)"/><path class="cls-5" d="M90.74,50.22a3.41,3.41,0,0,1,.07-.84l.51.1c-.25-1-3.61-2.7-8.57-3.65s-8.69-.67-9.31.19l.51.1c-.08.26-.16.53-.25.8,1,1,4,2.33,8.24,3.14S89.45,50.78,90.74,50.22Z"/><path class="cls-5" d="M73.57,47.41a43.46,43.46,0,0,0-1.3,5.29c-2.62,13.53.22,23.86,4.39,24.67s10.66-7.72,13.28-21.26a54.17,54.17,0,0,0,.76-5.39c-1.76.61-5.39.44-8.84-.23S75,48.58,73.57,47.41Z"/><path class="cls-3" d="M82.75,45.83c5,1,8.32,2.62,8.57,3.65l.47.09c-.1-1.52-4.52-3.27-9-4.13s-9.2-.89-9.85.49l.46.09C74,45.16,77.8,44.87,82.75,45.83Z"/><path class="cls-3" d="M81.94,50.06c-4.2-.81-7.25-2.13-8.24-3.14a1.84,1.84,0,0,1-.13.44c1.41,1.22,4.84,2.42,8.29,3.08s7.08.84,8.84.23v-.45C89.45,50.78,86.13,50.87,81.94,50.06Z"/><path class="cls-3" d="M73.57,47.41A1.84,1.84,0,0,1,73.7,47a.91.91,0,0,1-.34-.72.42.42,0,0,1,.08-.18L73,46a.62.62,0,0,0-.07.19C72.83,46.52,73.08,46.94,73.57,47.41Z"/><path class="cls-3" d="M91.33,49.68c0,.21-.25.39-.59.54v.45c.61-.2,1-.5,1.08-.9v-.2l-.47-.09A.44.44,0,0,1,91.33,49.68Z"/><path class="cls-6" d="M75.66,48.41c-1.55,3.69-5.37,20.82-2.57,25.85,0,0,0-16.54,4.32-25.11Z"/><path class="cls-6" d="M88.21,50.87c.06,4-2.78,21.33-7.25,24.95,0,0,6.15-15.36,5.35-24.9Z"/><path class="cls-7" d="M71.16,61.41l.2,7.34L74,76.84l2.43.47L79,64.22C75.8,63.63,72.67,62.56,71.16,61.41Z"/><path class="cls-8" d="M79.15,64.29H79L76.42,77.38l3.86.75L84.91,71l3.52-6.84C87.12,65.12,83,65,79.15,64.29Z"/><path class="cls-9" d="M70.23,60c-.09.48.27,1,.93,1.47,1.51,1.12,4.64,2.19,7.8,2.81l1-5C75.38,58.41,70.53,58.41,70.23,60Z"/><path class="cls-3" d="M72.91,46.12h0A.81.81,0,0,1,73,45.9.81.81,0,0,0,72.91,46.12Z"/><path class="cls-3" d="M91.77,49.78c-.08.4-.46.69-1.07.89a54.17,54.17,0,0,1-.76,5.39c-2.62,13.54-9.1,22.07-13.28,21.26s-7-11.14-4.39-24.67c.35-1.81.79-3.58,1.3-5.29-.48-.41-.72-.82-.66-1.21a53,53,0,0,0-2.27,8.11c-2.54,13.11-.19,24.61,5.23,26h.19c5.58,1.08,12.19-8.81,14.76-22.1A80.38,80.38,0,0,0,91.77,49.78Z"/><path class="cls-3" d="M91.79,49.57v.21h0A.74.74,0,0,0,91.79,49.57Z"/><path class="cls-10" d="M74.28,92.22,76.7,79.7l-.51-.09-4.41,22.8h.09c5.33,1,9.08.48,9.64-.09-.34-.29-1.43-1.2-4.74-3.92A6.5,6.5,0,0,1,74.28,92.22Z"/><path class="cls-3" d="M77,98.24a6.21,6.21,0,0,1-2.38-6l2.48-12.82-1.66-.32L73,91.92a6.24,6.24,0,0,1-4.43,4.63c-2.78.88-6.09,1.93-6.1,2-.18,1,4,3.17,9.37,4.21s9.94.54,10.13-.44Zm-5.14,4.23h-.28c-5.15-1-8.44-2.93-8.77-3.64.44-.15,1.78-.59,5.86-1.88a6.48,6.48,0,0,0,4.64-4.85l2.42-12.52,1,.18L74.34,92.28a6.5,6.5,0,0,0,2.49,6.24c3.31,2.72,4.4,3.63,4.74,3.92-.62.51-4.37,1.06-9.7,0Z"/><path class="cls-7" d="M75.74,79.52,73.32,92a6.48,6.48,0,0,1-4.64,4.85c-4.08,1.29-5.42,1.73-5.86,1.88.33.71,3.62,2.6,8.77,3.64h.19l4.41-22.84Z"/><path class="cls-11" d="M80.12,59.29h-.2l-1,5h.19c3.88.74,8,.83,9.28-.13a1,1,0,0,0,.41-.59C89.14,62,84.66,60.18,80.12,59.29Z"/><ellipse class="cls-12" cx="76.42" cy="65.58" rx="0.98" ry="1.14" transform="translate(-2.49 128.15) rotate(-79.05)"/><ellipse class="cls-12" cx="79.64" cy="68.2" rx="0.59" ry="0.69" transform="translate(-2.44 133.43) rotate(-79.05)"/><ellipse class="cls-12" cx="77.28" cy="69.53" rx="0.39" ry="0.46" transform="translate(-5.66 132.19) rotate(-79.05)"/><ellipse class="cls-12" cx="79.76" cy="71.21" rx="0.78" ry="0.92" transform="translate(-5.31 135.99) rotate(-79.05)"/><ellipse class="cls-12" cx="75.9" cy="73.06" rx="0.59" ry="0.69" transform="translate(-10.25 133.71) rotate(-79.05)"/><polygon class="cls-3" points="73.3 35.43 72.18 39.41 74.27 40.35 72.02 39.92 70.63 43.81 71.75 39.83 69.66 38.89 71.91 39.33 73.3 35.43"/></svg>